<svg width="411" height="321" viewBox="0 0 411 321" fill="none" xmlns="http://www.w3.org/2000/svg">
<rect width="411" height="321" rx="12" fill="#474747"/>
<rect width="311" height="221" transform="translate(50 50)" fill="#474747"/>
<path d="M59.24 73.288C57.544 73.288 56.088 72.928 54.872 72.208C53.656 71.472 52.72 70.456 52.064 69.16C51.408 67.848 51.08 66.336 51.08 64.624C51.08 62.912 51.408 61.4 52.064 60.088C52.72 58.776 53.656 57.752 54.872 57.016C56.088 56.28 57.544 55.912 59.24 55.912C61.256 55.912 62.904 56.416 64.184 57.424C65.48 58.416 66.288 59.816 66.608 61.624H63.224C63.016 60.712 62.568 60 61.88 59.488C61.208 58.96 60.312 58.696 59.192 58.696C57.64 58.696 56.424 59.224 55.544 60.28C54.664 61.336 54.224 62.784 54.224 64.624C54.224 66.464 54.664 67.912 55.544 68.968C56.424 70.008 57.64 70.528 59.192 70.528C60.312 70.528 61.208 70.288 61.88 69.808C62.568 69.312 63.016 68.632 63.224 67.768H66.608C66.288 69.496 65.48 70.848 64.184 71.824C62.904 72.8 61.256 73.288 59.24 73.288ZM74.2473 73.288C73.0953 73.288 72.0553 73.024 71.1273 72.496C70.2153 71.968 69.4873 71.24 68.9433 70.312C68.4153 69.368 68.1513 68.28 68.1513 67.048C68.1513 65.816 68.4233 64.736 68.9673 63.808C69.5113 62.864 70.2393 62.128 71.1513 61.6C72.0793 61.072 73.1193 60.808 74.2713 60.808C75.4073 60.808 76.4313 61.072 77.3433 61.6C78.2713 62.128 78.9993 62.864 79.5273 63.808C80.0713 64.736 80.3433 65.816 80.3433 67.048C80.3433 68.28 80.0713 69.368 79.5273 70.312C78.9993 71.24 78.2713 71.968 77.3433 72.496C76.4153 73.024 75.3833 73.288 74.2473 73.288ZM74.2473 70.624C75.0473 70.624 75.7433 70.328 76.3353 69.736C76.9273 69.128 77.2233 68.232 77.2233 67.048C77.2233 65.864 76.9273 64.976 76.3353 64.384C75.7433 63.776 75.0553 63.472 74.2713 63.472C73.4553 63.472 72.7513 63.776 72.1593 64.384C71.5833 64.976 71.2953 65.864 71.2953 67.048C71.2953 68.232 71.5833 69.128 72.1593 69.736C72.7513 70.328 73.4473 70.624 74.2473 70.624ZM82.37 73V61.096H85.082L85.346 62.704C85.73 62.128 86.234 61.672 86.858 61.336C87.498 60.984 88.234 60.808 89.066 60.808C90.906 60.808 92.21 61.52 92.978 62.944C93.41 62.288 93.986 61.768 94.706 61.384C95.442 61 96.242 60.808 97.106 60.808C98.658 60.808 99.85 61.272 100.682 62.2C101.514 63.128 101.93 64.488 101.93 66.28V73H98.858V66.568C98.858 65.544 98.658 64.76 98.258 64.216C97.874 63.672 97.274 63.4 96.458 63.4C95.626 63.4 94.954 63.704 94.442 64.312C93.946 64.92 93.698 65.768 93.698 66.856V73H90.626V66.568C90.626 65.544 90.426 64.76 90.026 64.216C89.626 63.672 89.01 63.4 88.178 63.4C87.362 63.4 86.698 63.704 86.186 64.312C85.69 64.92 85.442 65.768 85.442 66.856V73H82.37ZM109.911 73.288C108.711 73.288 107.647 73.032 106.719 72.52C105.791 72.008 105.063 71.288 104.535 70.36C104.007 69.432 103.743 68.36 103.743 67.144C103.743 65.912 103.999 64.816 104.511 63.856C105.039 62.896 105.759 62.152 106.671 61.624C107.599 61.08 108.687 60.808 109.935 60.808C111.103 60.808 112.135 61.064 113.031 61.576C113.927 62.088 114.623 62.792 115.119 63.688C115.631 64.568 115.887 65.552 115.887 66.64C115.887 66.816 115.879 67 115.863 67.192C115.863 67.384 115.855 67.584 115.839 67.792H106.791C106.855 68.72 107.175 69.448 107.751 69.976C108.343 70.504 109.055 70.768 109.887 70.768C110.511 70.768 111.031 70.632 111.447 70.36C111.879 70.072 112.199 69.704 112.407 69.256H115.527C115.303 70.008 114.927 70.696 114.399 71.32C113.887 71.928 113.247 72.408 112.479 72.76C111.727 73.112 110.871 73.288 109.911 73.288ZM109.935 63.304C109.183 63.304 108.519 63.52 107.943 63.952C107.367 64.368 106.999 65.008 106.839 65.872H112.767C112.719 65.088 112.431 64.464 111.903 64C111.375 63.536 110.719 63.304 109.935 63.304ZM126.853 73.288C125.829 73.288 124.989 73.128 124.333 72.808C123.677 72.472 123.189 72.032 122.869 71.488C122.549 70.944 122.389 70.344 122.389 69.688C122.389 68.584 122.821 67.688 123.685 67C124.549 66.312 125.845 65.968 127.573 65.968H130.597V65.68C130.597 64.864 130.365 64.264 129.901 63.88C129.437 63.496 128.861 63.304 128.173 63.304C127.549 63.304 127.005 63.456 126.541 63.76C126.077 64.048 125.789 64.48 125.677 65.056H122.677C122.757 64.192 123.045 63.44 123.541 62.8C124.053 62.16 124.709 61.672 125.509 61.336C126.309 60.984 127.205 60.808 128.197 60.808C129.893 60.808 131.229 61.232 132.205 62.08C133.181 62.928 133.669 64.128 133.669 65.68V73H131.053L130.765 71.08C130.413 71.72 129.917 72.248 129.277 72.664C128.653 73.08 127.845 73.288 126.853 73.288ZM127.549 70.888C128.429 70.888 129.109 70.6 129.589 70.024C130.085 69.448 130.397 68.736 130.525 67.888H127.909C127.093 67.888 126.509 68.04 126.157 68.344C125.805 68.632 125.629 68.992 125.629 69.424C125.629 69.888 125.805 70.248 126.157 70.504C126.509 70.76 126.973 70.888 127.549 70.888ZM135.881 73V61.096H138.593L138.833 63.112C139.201 62.408 139.729 61.848 140.417 61.432C141.121 61.016 141.945 60.808 142.889 60.808C144.361 60.808 145.505 61.272 146.321 62.2C147.137 63.128 147.545 64.488 147.545 66.28V73H144.473V66.568C144.473 65.544 144.265 64.76 143.849 64.216C143.433 63.672 142.785 63.4 141.905 63.4C141.041 63.4 140.329 63.704 139.769 64.312C139.225 64.92 138.953 65.768 138.953 66.856V73H135.881ZM155.234 73.288C154.114 73.288 153.114 73.016 152.234 72.472C151.354 71.928 150.658 71.184 150.146 70.24C149.634 69.296 149.378 68.224 149.378 67.024C149.378 65.824 149.634 64.76 150.146 63.832C150.658 62.888 151.354 62.152 152.234 61.624C153.114 61.08 154.114 60.808 155.234 60.808C156.13 60.808 156.914 60.976 157.586 61.312C158.258 61.648 158.802 62.12 159.218 62.728V55.72H162.29V73H159.554L159.218 71.296C158.834 71.824 158.322 72.288 157.682 72.688C157.058 73.088 156.242 73.288 155.234 73.288ZM155.882 70.6C156.874 70.6 157.682 70.272 158.306 69.616C158.946 68.944 159.266 68.088 159.266 67.048C159.266 66.008 158.946 65.16 158.306 64.504C157.682 63.832 156.874 63.496 155.882 63.496C154.906 63.496 154.098 63.824 153.458 64.48C152.818 65.136 152.498 65.984 152.498 67.024C152.498 68.064 152.818 68.92 153.458 69.592C154.098 70.264 154.906 70.6 155.882 70.6ZM172.913 73L168.545 61.096H171.761L174.785 70.096L177.809 61.096H181.025L176.633 73H172.913ZM183.899 59.248C183.339 59.248 182.875 59.08 182.507 58.744C182.155 58.408 181.979 57.984 181.979 57.472C181.979 56.96 182.155 56.544 182.507 56.224C182.875 55.888 183.339 55.72 183.899 55.72C184.459 55.72 184.915 55.888 185.267 56.224C185.635 56.544 185.819 56.96 185.819 57.472C185.819 57.984 185.635 58.408 185.267 58.744C184.915 59.08 184.459 59.248 183.899 59.248ZM182.363 73V61.096H185.435V73H182.363ZM192.841 73.288C191.785 73.288 190.857 73.12 190.057 72.784C189.257 72.432 188.617 71.952 188.137 71.344C187.657 70.736 187.369 70.032 187.273 69.232H190.369C190.465 69.696 190.721 70.096 191.137 70.432C191.569 70.752 192.121 70.912 192.793 70.912C193.465 70.912 193.953 70.776 194.257 70.504C194.577 70.232 194.737 69.92 194.737 69.568C194.737 69.056 194.513 68.712 194.065 68.536C193.617 68.344 192.993 68.16 192.193 67.984C191.681 67.872 191.161 67.736 190.633 67.576C190.105 67.416 189.617 67.216 189.169 66.976C188.737 66.72 188.385 66.4 188.113 66.016C187.841 65.616 187.705 65.128 187.705 64.552C187.705 63.496 188.121 62.608 188.953 61.888C189.801 61.168 190.985 60.808 192.505 60.808C193.913 60.808 195.033 61.136 195.865 61.792C196.713 62.448 197.217 63.352 197.377 64.504H194.473C194.297 63.624 193.633 63.184 192.481 63.184C191.905 63.184 191.457 63.296 191.137 63.52C190.833 63.744 190.681 64.024 190.681 64.36C190.681 64.712 190.913 64.992 191.377 65.2C191.841 65.408 192.457 65.6 193.225 65.776C194.057 65.968 194.817 66.184 195.505 66.424C196.209 66.648 196.769 66.992 197.185 67.456C197.601 67.904 197.809 68.552 197.809 69.4C197.825 70.136 197.633 70.8 197.233 71.392C196.833 71.984 196.257 72.448 195.505 72.784C194.753 73.12 193.865 73.288 192.841 73.288ZM201.467 59.248C200.907 59.248 200.443 59.08 200.075 58.744C199.723 58.408 199.547 57.984 199.547 57.472C199.547 56.96 199.723 56.544 200.075 56.224C200.443 55.888 200.907 55.72 201.467 55.72C202.027 55.72 202.483 55.888 202.835 56.224C203.203 56.544 203.387 56.96 203.387 57.472C203.387 57.984 203.203 58.408 202.835 58.744C202.483 59.08 202.027 59.248 201.467 59.248ZM199.931 73V61.096H203.003V73H199.931ZM210.793 73C209.545 73 208.545 72.696 207.793 72.088C207.041 71.48 206.665 70.4 206.665 68.848V63.664H204.625V61.096H206.665L207.025 57.904H209.737V61.096H212.953V63.664H209.737V68.872C209.737 69.448 209.857 69.848 210.097 70.072C210.353 70.28 210.785 70.384 211.393 70.384H212.881V73H210.793ZM224.333 73.288C222.845 73.288 221.693 72.824 220.877 71.896C220.077 70.968 219.677 69.608 219.677 67.816V61.096H222.725V67.528C222.725 68.552 222.933 69.336 223.349 69.88C223.765 70.424 224.421 70.696 225.317 70.696C226.165 70.696 226.861 70.392 227.405 69.784C227.965 69.176 228.245 68.328 228.245 67.24V61.096H231.317V73H228.605L228.365 70.984C227.997 71.688 227.461 72.248 226.757 72.664C226.069 73.08 225.261 73.288 224.333 73.288ZM238.671 73.288C237.615 73.288 236.687 73.12 235.887 72.784C235.087 72.432 234.447 71.952 233.967 71.344C233.487 70.736 233.199 70.032 233.103 69.232H236.199C236.295 69.696 236.551 70.096 236.967 70.432C237.399 70.752 237.951 70.912 238.623 70.912C239.295 70.912 239.783 70.776 240.087 70.504C240.407 70.232 240.567 69.92 240.567 69.568C240.567 69.056 240.343 68.712 239.895 68.536C239.447 68.344 238.823 68.16 238.023 67.984C237.511 67.872 236.991 67.736 236.463 67.576C235.935 67.416 235.447 67.216 234.999 66.976C234.567 66.72 234.215 66.4 233.943 66.016C233.671 65.616 233.535 65.128 233.535 64.552C233.535 63.496 233.951 62.608 234.783 61.888C235.631 61.168 236.815 60.808 238.335 60.808C239.743 60.808 240.863 61.136 241.695 61.792C242.543 62.448 243.047 63.352 243.207 64.504H240.303C240.127 63.624 239.463 63.184 238.311 63.184C237.735 63.184 237.287 63.296 236.967 63.52C236.663 63.744 236.511 64.024 236.511 64.36C236.511 64.712 236.743 64.992 237.207 65.2C237.671 65.408 238.287 65.6 239.055 65.776C239.887 65.968 240.647 66.184 241.335 66.424C242.039 66.648 242.599 66.992 243.015 67.456C243.431 67.904 243.639 68.552 243.639 69.4C243.655 70.136 243.463 70.8 243.063 71.392C242.663 71.984 242.087 72.448 241.335 72.784C240.583 73.12 239.695 73.288 238.671 73.288Z" fill="white"/>
<path d="M53 130C53 128.895 53.8954 128 55 128H58.2792C58.7097 128 59.0918 128.275 59.2279 128.684L60.7257 133.177C60.8831 133.649 60.6694 134.165 60.2243 134.388L57.967 135.516C59.0692 137.961 61.0388 139.931 63.4835 141.033L64.6121 138.776C64.8347 138.331 65.3507 138.117 65.8228 138.274L70.3162 139.772C70.7246 139.908 71 140.29 71 140.721V144C71 145.105 70.1046 146 69 146H68C59.7157 146 53 139.284 53 131V130Z" stroke="white" stroke-width="2" stroke-linecap="round" stroke-linejoin="round"/>
<path d="M97.968 144.32C97.392 143.765 96.8587 143.104 96.368 142.336C95.8773 141.579 95.4827 140.725 95.184 139.776C94.896 138.816 94.752 137.781 94.752 136.672C94.752 135.563 94.896 134.533 95.184 133.584C95.4827 132.624 95.8773 131.765 96.368 131.008C96.8587 130.24 97.392 129.579 97.968 129.024H99.344V129.152C98.3627 130.112 97.5733 131.237 96.976 132.528C96.3893 133.808 96.096 135.189 96.096 136.672C96.096 138.155 96.3947 139.541 96.992 140.832C97.5893 142.112 98.3733 143.232 99.344 144.192V144.32H97.968ZM105.584 142V139.6H99.9041V138.56L105.344 130.8H106.912V138.416H108.576V139.6H106.912V142H105.584ZM101.392 138.416H105.648V132.288L101.392 138.416ZM111.304 142V132.304L109.496 132.704V131.776L111.752 130.8H112.664V142H111.304ZM120.1 142V139.6H114.42V138.56L119.86 130.8H121.428V138.416H123.092V139.6H121.428V142H120.1ZM115.908 138.416H120.164V132.288L115.908 138.416ZM124.139 144.32V144.192C125.11 143.232 125.894 142.112 126.491 140.832C127.099 139.541 127.403 138.155 127.403 136.672C127.403 135.189 127.105 133.808 126.507 132.528C125.91 131.237 125.126 130.112 124.155 129.152V129.024H125.515C126.102 129.579 126.635 130.24 127.115 131.008C127.606 131.765 127.995 132.624 128.283 133.584C128.582 134.533 128.731 135.563 128.731 136.672C128.731 137.781 128.582 138.816 128.283 139.776C127.995 140.725 127.606 141.579 127.115 142.336C126.635 143.104 126.102 143.765 125.515 144.32H124.139ZM138.599 142.192C137.863 142.192 137.201 142.059 136.615 141.792C136.028 141.515 135.564 141.136 135.223 140.656C134.892 140.165 134.727 139.6 134.727 138.96C134.727 138.277 134.924 137.664 135.319 137.12C135.724 136.576 136.257 136.213 136.919 136.032C136.311 135.829 135.841 135.504 135.511 135.056C135.18 134.608 135.015 134.117 135.015 133.584C135.015 133.04 135.159 132.544 135.447 132.096C135.735 131.637 136.145 131.275 136.679 131.008C137.212 130.741 137.852 130.608 138.599 130.608C139.345 130.608 139.985 130.741 140.519 131.008C141.052 131.275 141.463 131.637 141.751 132.096C142.039 132.544 142.183 133.04 142.183 133.584C142.183 134.107 142.017 134.597 141.687 135.056C141.356 135.504 140.887 135.829 140.279 136.032C140.94 136.213 141.468 136.576 141.863 137.12C142.268 137.664 142.471 138.277 142.471 138.96C142.471 139.6 142.3 140.165 141.959 140.656C141.628 141.136 141.169 141.515 140.583 141.792C139.996 142.059 139.335 142.192 138.599 142.192ZM138.599 135.552C139.281 135.552 139.82 135.381 140.215 135.04C140.62 134.688 140.823 134.229 140.823 133.664C140.823 133.035 140.625 132.56 140.231 132.24C139.836 131.92 139.292 131.76 138.599 131.76C137.905 131.76 137.361 131.92 136.967 132.24C136.583 132.56 136.391 133.035 136.391 133.664C136.391 134.229 136.588 134.688 136.983 135.04C137.377 135.381 137.916 135.552 138.599 135.552ZM138.599 141.008C139.441 141.008 140.071 140.816 140.487 140.432C140.913 140.037 141.127 139.52 141.127 138.88C141.127 138.155 140.897 137.605 140.439 137.232C139.98 136.859 139.367 136.672 138.599 136.672C137.831 136.672 137.217 136.859 136.759 137.232C136.3 137.605 136.071 138.155 136.071 138.88C136.071 139.52 136.279 140.037 136.695 140.432C137.121 140.816 137.756 141.008 138.599 141.008ZM148.476 142.192C147.708 142.192 147.042 142.053 146.476 141.776C145.911 141.499 145.458 141.12 145.116 140.64C144.786 140.149 144.583 139.595 144.508 138.976H145.82C145.948 139.595 146.247 140.096 146.716 140.48C147.186 140.853 147.778 141.04 148.492 141.04C149.026 141.04 149.484 140.917 149.868 140.672C150.252 140.416 150.546 140.075 150.748 139.648C150.962 139.221 151.068 138.747 151.068 138.224C151.068 137.392 150.834 136.72 150.364 136.208C149.895 135.696 149.287 135.44 148.54 135.44C147.922 135.44 147.394 135.579 146.956 135.856C146.519 136.133 146.199 136.496 145.996 136.944H144.716L145.676 130.8H151.548V131.968H146.716L146.06 135.376C146.316 135.067 146.668 134.811 147.116 134.608C147.575 134.405 148.098 134.304 148.684 134.304C149.42 134.304 150.06 134.475 150.604 134.816C151.159 135.157 151.591 135.621 151.9 136.208C152.21 136.795 152.364 137.461 152.364 138.208C152.364 138.923 152.21 139.584 151.9 140.192C151.602 140.8 151.159 141.285 150.572 141.648C149.996 142.011 149.298 142.192 148.476 142.192ZM155.128 142L159.576 131.952H153.432V130.8H160.952V131.808L156.552 142H155.128ZM166.725 137.92V136.784H173.061V137.92H166.725ZM183.771 142.192C182.779 142.192 181.92 141.952 181.195 141.472C180.48 140.981 179.931 140.304 179.547 139.44C179.163 138.565 178.971 137.552 178.971 136.4C178.971 135.248 179.163 134.24 179.547 133.376C179.931 132.501 180.48 131.824 181.195 131.344C181.92 130.853 182.779 130.608 183.771 130.608C184.763 130.608 185.616 130.853 186.331 131.344C187.045 131.824 187.595 132.501 187.979 133.376C188.363 134.24 188.555 135.248 188.555 136.4C188.555 137.552 188.363 138.565 187.979 139.44C187.595 140.304 187.045 140.981 186.331 141.472C185.616 141.952 184.763 142.192 183.771 142.192ZM183.771 141.008C184.421 141.008 185.003 140.827 185.515 140.464C186.037 140.091 186.443 139.563 186.731 138.88C187.029 138.187 187.179 137.36 187.179 136.4C187.179 135.44 187.029 134.619 186.731 133.936C186.443 133.253 186.037 132.731 185.515 132.368C185.003 131.995 184.421 131.808 183.771 131.808C183.109 131.808 182.523 131.995 182.011 132.368C181.499 132.731 181.093 133.253 180.795 133.936C180.496 134.619 180.347 135.44 180.347 136.4C180.347 137.36 180.496 138.187 180.795 138.88C181.093 139.563 181.499 140.091 182.011 140.464C182.523 140.827 183.109 141.008 183.771 141.008ZM191.601 142V132.304L189.793 132.704V131.776L192.049 130.8H192.961V142H191.601ZM199.693 142.192C198.701 142.192 197.842 141.952 197.117 141.472C196.402 140.981 195.853 140.304 195.469 139.44C195.085 138.565 194.893 137.552 194.893 136.4C194.893 135.248 195.085 134.24 195.469 133.376C195.853 132.501 196.402 131.824 197.117 131.344C197.842 130.853 198.701 130.608 199.693 130.608C200.685 130.608 201.538 130.853 202.253 131.344C202.967 131.824 203.517 132.501 203.901 133.376C204.285 134.24 204.477 135.248 204.477 136.4C204.477 137.552 204.285 138.565 203.901 139.44C203.517 140.304 202.967 140.981 202.253 141.472C201.538 141.952 200.685 142.192 199.693 142.192ZM199.693 141.008C200.343 141.008 200.925 140.827 201.437 140.464C201.959 140.091 202.365 139.563 202.653 138.88C202.951 138.187 203.101 137.36 203.101 136.4C203.101 135.44 202.951 134.619 202.653 133.936C202.365 133.253 201.959 132.731 201.437 132.368C200.925 131.995 200.343 131.808 199.693 131.808C199.031 131.808 198.445 131.995 197.933 132.368C197.421 132.731 197.015 133.253 196.717 133.936C196.418 134.619 196.269 135.44 196.269 136.4C196.269 137.36 196.418 138.187 196.717 138.88C197.015 139.563 197.421 140.091 197.933 140.464C198.445 140.827 199.031 141.008 199.693 141.008ZM207.128 142L211.576 131.952H205.432V130.8H212.952V131.808L208.552 142H207.128Z" fill="#F9F9F7"/>
<path d="M53 182L60.8906 187.26C61.5624 187.708 62.4376 187.708 63.1094 187.26L71 182M55 193H69C70.1046 193 71 192.105 71 191V181C71 179.895 70.1046 179 69 179H55C53.8954 179 53 179.895 53 181V191C53 192.105 53.8954 193 55 193Z" stroke="white" stroke-width="2" stroke-linecap="round" stroke-linejoin="round"/>
<path d="M95.104 191V179.48H96.448V184.424C96.7147 183.933 97.0933 183.555 97.584 183.288C98.0747 183.011 98.608 182.872 99.184 182.872C100.101 182.872 100.837 183.16 101.392 183.736C101.947 184.301 102.224 185.176 102.224 186.36V191H100.896V186.504C100.896 184.851 100.229 184.024 98.896 184.024C98.2027 184.024 97.6213 184.275 97.152 184.776C96.6827 185.267 96.448 185.971 96.448 186.888V191H95.104ZM106.9 191.192C106.239 191.192 105.69 191.08 105.252 190.856C104.815 190.632 104.49 190.333 104.276 189.96C104.063 189.587 103.956 189.181 103.956 188.744C103.956 187.933 104.266 187.309 104.884 186.872C105.503 186.435 106.346 186.216 107.412 186.216H109.556V186.12C109.556 185.427 109.375 184.904 109.012 184.552C108.65 184.189 108.164 184.008 107.556 184.008C107.034 184.008 106.58 184.141 106.196 184.408C105.823 184.664 105.588 185.043 105.492 185.544H104.116C104.17 184.968 104.362 184.483 104.692 184.088C105.034 183.693 105.455 183.395 105.956 183.192C106.458 182.979 106.991 182.872 107.556 182.872C108.666 182.872 109.498 183.171 110.052 183.768C110.618 184.355 110.9 185.139 110.9 186.12V191H109.7L109.62 189.576C109.396 190.024 109.066 190.408 108.628 190.728C108.202 191.037 107.626 191.192 106.9 191.192ZM107.108 190.056C107.62 190.056 108.058 189.923 108.42 189.656C108.794 189.389 109.076 189.043 109.268 188.616C109.46 188.189 109.556 187.741 109.556 187.272V187.256H107.524C106.735 187.256 106.175 187.395 105.844 187.672C105.524 187.939 105.364 188.275 105.364 188.68C105.364 189.096 105.514 189.432 105.812 189.688C106.122 189.933 106.554 190.056 107.108 190.056ZM112.917 194.52V183.064H114.133L114.261 184.376C114.517 183.992 114.879 183.645 115.349 183.336C115.829 183.027 116.437 182.872 117.173 182.872C117.962 182.872 118.65 183.053 119.237 183.416C119.823 183.779 120.277 184.275 120.597 184.904C120.927 185.533 121.093 186.248 121.093 187.048C121.093 187.848 120.927 188.563 120.597 189.192C120.277 189.811 119.818 190.301 119.221 190.664C118.634 191.016 117.946 191.192 117.157 191.192C116.506 191.192 115.925 191.059 115.413 190.792C114.911 190.525 114.527 190.152 114.261 189.672V194.52H112.917ZM117.013 190.024C117.546 190.024 118.015 189.901 118.421 189.656C118.826 189.4 119.146 189.048 119.381 188.6C119.615 188.152 119.733 187.629 119.733 187.032C119.733 186.435 119.615 185.912 119.381 185.464C119.146 185.016 118.826 184.669 118.421 184.424C118.015 184.168 117.546 184.04 117.013 184.04C116.479 184.04 116.01 184.168 115.605 184.424C115.199 184.669 114.879 185.016 114.645 185.464C114.41 185.912 114.293 186.435 114.293 187.032C114.293 187.629 114.41 188.152 114.645 188.6C114.879 189.048 115.199 189.4 115.605 189.656C116.01 189.901 116.479 190.024 117.013 190.024ZM122.963 194.52V183.064H124.179L124.307 184.376C124.563 183.992 124.926 183.645 125.395 183.336C125.875 183.027 126.483 182.872 127.219 182.872C128.009 182.872 128.697 183.053 129.283 183.416C129.87 183.779 130.323 184.275 130.643 184.904C130.974 185.533 131.139 186.248 131.139 187.048C131.139 187.848 130.974 188.563 130.643 189.192C130.323 189.811 129.865 190.301 129.267 190.664C128.681 191.016 127.993 191.192 127.203 191.192C126.553 191.192 125.971 191.059 125.459 190.792C124.958 190.525 124.574 190.152 124.307 189.672V194.52H122.963ZM127.059 190.024C127.593 190.024 128.062 189.901 128.467 189.656C128.873 189.4 129.193 189.048 129.427 188.6C129.662 188.152 129.779 187.629 129.779 187.032C129.779 186.435 129.662 185.912 129.427 185.464C129.193 185.016 128.873 184.669 128.467 184.424C128.062 184.168 127.593 184.04 127.059 184.04C126.526 184.04 126.057 184.168 125.651 184.424C125.246 184.669 124.926 185.016 124.691 185.464C124.457 185.912 124.339 186.435 124.339 187.032C124.339 187.629 124.457 188.152 124.691 188.6C124.926 189.048 125.246 189.4 125.651 189.656C126.057 189.901 126.526 190.024 127.059 190.024ZM133.234 194.52L135.202 190.232H134.738L131.586 183.064H133.042L135.666 189.24L138.45 183.064H139.842L134.642 194.52H133.234ZM144.396 191C143.671 191 143.1 190.824 142.684 190.472C142.268 190.12 142.06 189.485 142.06 188.568V184.2H140.684V183.064H142.06L142.236 181.16H143.404V183.064H145.74V184.2H143.404V188.568C143.404 189.069 143.506 189.411 143.708 189.592C143.911 189.763 144.268 189.848 144.78 189.848H145.612V191H144.396ZM150.344 191.192C149.405 191.192 148.658 190.909 148.104 190.344C147.549 189.768 147.272 188.888 147.272 187.704V183.064H148.616V187.56C148.616 189.213 149.293 190.04 150.648 190.04C151.341 190.04 151.912 189.795 152.36 189.304C152.818 188.803 153.048 188.093 153.048 187.176V183.064H154.392V191H153.176L153.08 189.576C152.834 190.077 152.466 190.472 151.976 190.76C151.496 191.048 150.952 191.192 150.344 191.192ZM156.604 191V183.064H157.82L157.916 184.216C158.172 183.789 158.513 183.459 158.94 183.224C159.367 182.989 159.847 182.872 160.38 182.872C161.009 182.872 161.548 183 161.996 183.256C162.455 183.512 162.807 183.901 163.052 184.424C163.329 183.944 163.708 183.565 164.188 183.288C164.679 183.011 165.207 182.872 165.772 182.872C166.721 182.872 167.479 183.16 168.044 183.736C168.609 184.301 168.892 185.176 168.892 186.36V191H167.564V186.504C167.564 185.683 167.399 185.064 167.068 184.648C166.737 184.232 166.263 184.024 165.644 184.024C165.004 184.024 164.471 184.275 164.044 184.776C163.628 185.267 163.42 185.971 163.42 186.888V191H162.076V186.504C162.076 185.683 161.911 185.064 161.58 184.648C161.249 184.232 160.775 184.024 160.156 184.024C159.527 184.024 158.999 184.275 158.572 184.776C158.156 185.267 157.948 185.971 157.948 186.888V191H156.604ZM170.917 191V183.064H172.133L172.229 184.216C172.485 183.789 172.826 183.459 173.253 183.224C173.679 182.989 174.159 182.872 174.693 182.872C175.322 182.872 175.861 183 176.309 183.256C176.767 183.512 177.119 183.901 177.365 184.424C177.642 183.944 178.021 183.565 178.501 183.288C178.991 183.011 179.519 182.872 180.085 182.872C181.034 182.872 181.791 183.16 182.357 183.736C182.922 184.301 183.205 185.176 183.205 186.36V191H181.877V186.504C181.877 185.683 181.711 185.064 181.381 184.648C181.05 184.232 180.575 184.024 179.957 184.024C179.317 184.024 178.783 184.275 178.357 184.776C177.941 185.267 177.733 185.971 177.733 186.888V191H176.389V186.504C176.389 185.683 176.223 185.064 175.893 184.648C175.562 184.232 175.087 184.024 174.469 184.024C173.839 184.024 173.311 184.275 172.885 184.776C172.469 185.267 172.261 185.971 172.261 186.888V191H170.917ZM185.859 194.52L187.827 190.232H187.363L184.211 183.064H185.667L188.291 189.24L191.075 183.064H192.467L187.267 194.52H185.859ZM198.756 194.184C197.614 194.184 196.612 193.965 195.748 193.528C194.894 193.091 194.228 192.472 193.748 191.672C193.278 190.872 193.044 189.923 193.044 188.824C193.044 187.693 193.241 186.637 193.636 185.656C194.03 184.675 194.585 183.816 195.3 183.08C196.014 182.344 196.857 181.773 197.828 181.368C198.798 180.963 199.865 180.76 201.028 180.76C202.212 180.76 203.241 180.989 204.116 181.448C204.99 181.896 205.662 182.525 206.132 183.336C206.612 184.136 206.852 185.069 206.852 186.136C206.852 186.744 206.777 187.347 206.628 187.944C206.478 188.531 206.254 189.064 205.956 189.544C205.668 190.013 205.31 190.392 204.884 190.68C204.468 190.957 203.988 191.096 203.444 191.096C202.9 191.096 202.484 190.957 202.196 190.68C201.918 190.403 201.764 190.029 201.732 189.56C201.401 190.04 200.98 190.419 200.468 190.696C199.966 190.963 199.433 191.096 198.868 191.096C198.057 191.096 197.422 190.851 196.964 190.36C196.516 189.869 196.292 189.208 196.292 188.376C196.292 187.789 196.382 187.229 196.564 186.696C196.756 186.152 197.022 185.672 197.364 185.256C197.705 184.829 198.11 184.493 198.58 184.248C199.049 184.003 199.572 183.88 200.148 183.88C201.225 183.88 201.924 184.323 202.244 185.208L202.452 184.056H203.588L202.788 188.632C202.713 189.091 202.734 189.464 202.852 189.752C202.98 190.029 203.241 190.168 203.636 190.168C203.977 190.168 204.281 190.051 204.548 189.816C204.814 189.571 205.038 189.251 205.22 188.856C205.401 188.451 205.534 188.019 205.62 187.56C205.716 187.091 205.764 186.637 205.764 186.2C205.764 184.803 205.326 183.704 204.452 182.904C203.588 182.104 202.393 181.704 200.868 181.704C199.897 181.704 199.001 181.885 198.18 182.248C197.369 182.611 196.66 183.112 196.052 183.752C195.444 184.392 194.969 185.133 194.628 185.976C194.297 186.819 194.132 187.731 194.132 188.712C194.132 189.672 194.329 190.488 194.724 191.16C195.118 191.832 195.678 192.344 196.404 192.696C197.129 193.048 197.993 193.224 198.996 193.224C199.454 193.224 199.913 193.176 200.372 193.08C200.83 192.995 201.257 192.861 201.652 192.68L201.876 193.592C200.916 193.987 199.876 194.184 198.756 194.184ZM199.268 190.072C199.726 190.072 200.148 189.949 200.532 189.704C200.916 189.459 201.23 189.123 201.476 188.696C201.721 188.259 201.87 187.757 201.924 187.192C201.998 186.563 201.886 186.024 201.588 185.576C201.3 185.128 200.83 184.904 200.18 184.904C199.636 184.904 199.161 185.064 198.756 185.384C198.361 185.693 198.057 186.099 197.844 186.6C197.63 187.101 197.524 187.624 197.524 188.168C197.524 188.744 197.668 189.208 197.956 189.56C198.254 189.901 198.692 190.072 199.268 190.072ZM209.151 191V183.064H210.367L210.479 184.584C210.724 184.061 211.098 183.645 211.599 183.336C212.1 183.027 212.719 182.872 213.455 182.872V184.28H213.087C212.618 184.28 212.186 184.365 211.791 184.536C211.396 184.696 211.082 184.973 210.847 185.368C210.612 185.763 210.495 186.307 210.495 187V191H209.151ZM218.235 191.192C217.477 191.192 216.805 191.021 216.219 190.68C215.632 190.328 215.168 189.843 214.827 189.224C214.496 188.605 214.331 187.875 214.331 187.032C214.331 186.2 214.496 185.475 214.827 184.856C215.157 184.227 215.616 183.741 216.203 183.4C216.8 183.048 217.488 182.872 218.266 182.872C219.035 182.872 219.696 183.048 220.251 183.4C220.816 183.741 221.248 184.195 221.547 184.76C221.845 185.325 221.995 185.933 221.995 186.584C221.995 186.701 221.989 186.819 221.979 186.936C221.979 187.053 221.979 187.187 221.979 187.336H215.659C215.691 187.944 215.829 188.451 216.075 188.856C216.331 189.251 216.645 189.549 217.019 189.752C217.403 189.955 217.808 190.056 218.235 190.056C218.789 190.056 219.253 189.928 219.627 189.672C220 189.416 220.272 189.069 220.443 188.632H221.771C221.557 189.368 221.147 189.981 220.539 190.472C219.941 190.952 219.173 191.192 218.235 191.192ZM218.235 184.008C217.595 184.008 217.024 184.205 216.523 184.6C216.032 184.984 215.749 185.549 215.674 186.296H220.667C220.635 185.581 220.389 185.021 219.931 184.616C219.472 184.211 218.907 184.008 218.235 184.008ZM226.816 191.192C225.867 191.192 225.077 190.952 224.448 190.472C223.819 189.992 223.451 189.341 223.344 188.52H224.72C224.805 188.936 225.024 189.299 225.376 189.608C225.739 189.907 226.224 190.056 226.832 190.056C227.397 190.056 227.813 189.939 228.08 189.704C228.347 189.459 228.48 189.171 228.48 188.84C228.48 188.36 228.304 188.04 227.952 187.88C227.611 187.72 227.125 187.576 226.496 187.448C226.069 187.363 225.643 187.24 225.216 187.08C224.789 186.92 224.432 186.696 224.144 186.408C223.856 186.109 223.712 185.72 223.712 185.24C223.712 184.547 223.968 183.981 224.48 183.544C225.003 183.096 225.707 182.872 226.592 182.872C227.435 182.872 228.123 183.085 228.656 183.512C229.2 183.928 229.515 184.525 229.6 185.304H228.272C228.219 184.899 228.043 184.584 227.744 184.36C227.456 184.125 227.067 184.008 226.576 184.008C226.096 184.008 225.723 184.109 225.456 184.312C225.2 184.515 225.072 184.781 225.072 185.112C225.072 185.432 225.237 185.683 225.568 185.864C225.909 186.045 226.368 186.2 226.944 186.328C227.435 186.435 227.899 186.568 228.336 186.728C228.784 186.877 229.147 187.107 229.424 187.416C229.712 187.715 229.856 188.152 229.856 188.728C229.867 189.443 229.595 190.035 229.04 190.504C228.496 190.963 227.755 191.192 226.816 191.192ZM234.553 191C233.827 191 233.257 190.824 232.841 190.472C232.425 190.12 232.217 189.485 232.217 188.568V184.2H230.84V183.064H232.217L232.393 181.16H233.561V183.064H235.897V184.2H233.561V188.568C233.561 189.069 233.662 189.411 233.865 189.592C234.067 189.763 234.425 189.848 234.937 189.848H235.769V191H234.553ZM240.244 191.192C239.583 191.192 239.033 191.08 238.596 190.856C238.159 190.632 237.833 190.333 237.62 189.96C237.407 189.587 237.3 189.181 237.3 188.744C237.3 187.933 237.609 187.309 238.228 186.872C238.847 186.435 239.689 186.216 240.756 186.216H242.9V186.12C242.9 185.427 242.719 184.904 242.356 184.552C241.993 184.189 241.508 184.008 240.9 184.008C240.377 184.008 239.924 184.141 239.54 184.408C239.167 184.664 238.932 185.043 238.836 185.544H237.46C237.513 184.968 237.705 184.483 238.036 184.088C238.377 183.693 238.799 183.395 239.3 183.192C239.801 182.979 240.335 182.872 240.9 182.872C242.009 182.872 242.841 183.171 243.396 183.768C243.961 184.355 244.244 185.139 244.244 186.12V191H243.044L242.964 189.576C242.74 190.024 242.409 190.408 241.972 190.728C241.545 191.037 240.969 191.192 240.244 191.192ZM240.452 190.056C240.964 190.056 241.401 189.923 241.764 189.656C242.137 189.389 242.42 189.043 242.612 188.616C242.804 188.189 242.9 187.741 242.9 187.272V187.256H240.868C240.079 187.256 239.519 187.395 239.188 187.672C238.868 187.939 238.708 188.275 238.708 188.68C238.708 189.096 238.857 189.432 239.156 189.688C239.465 189.933 239.897 190.056 240.452 190.056ZM249.156 191.192C248.218 191.192 247.471 190.909 246.916 190.344C246.362 189.768 246.084 188.888 246.084 187.704V183.064H247.428V187.56C247.428 189.213 248.106 190.04 249.46 190.04C250.154 190.04 250.724 189.795 251.172 189.304C251.631 188.803 251.86 188.093 251.86 187.176V183.064H253.204V191H251.988L251.892 189.576C251.647 190.077 251.279 190.472 250.788 190.76C250.308 191.048 249.764 191.192 249.156 191.192ZM255.417 191V183.064H256.633L256.745 184.584C256.99 184.061 257.363 183.645 257.865 183.336C258.366 183.027 258.985 182.872 259.721 182.872V184.28H259.353C258.883 184.28 258.451 184.365 258.057 184.536C257.662 184.696 257.347 184.973 257.113 185.368C256.878 185.763 256.761 186.307 256.761 187V191H255.417ZM263.869 191.192C263.208 191.192 262.658 191.08 262.221 190.856C261.784 190.632 261.458 190.333 261.245 189.96C261.032 189.587 260.925 189.181 260.925 188.744C260.925 187.933 261.234 187.309 261.853 186.872C262.472 186.435 263.314 186.216 264.381 186.216H266.525V186.12C266.525 185.427 266.344 184.904 265.981 184.552C265.618 184.189 265.133 184.008 264.525 184.008C264.002 184.008 263.549 184.141 263.165 184.408C262.792 184.664 262.557 185.043 262.461 185.544H261.085C261.138 184.968 261.33 184.483 261.661 184.088C262.002 183.693 262.424 183.395 262.925 183.192C263.426 182.979 263.96 182.872 264.525 182.872C265.634 182.872 266.466 183.171 267.021 183.768C267.586 184.355 267.869 185.139 267.869 186.12V191H266.669L266.589 189.576C266.365 190.024 266.034 190.408 265.597 190.728C265.17 191.037 264.594 191.192 263.869 191.192ZM264.077 190.056C264.589 190.056 265.026 189.923 265.389 189.656C265.762 189.389 266.045 189.043 266.237 188.616C266.429 188.189 266.525 187.741 266.525 187.272V187.256H264.493C263.704 187.256 263.144 187.395 262.813 187.672C262.493 187.939 262.333 188.275 262.333 188.68C262.333 189.096 262.482 189.432 262.781 189.688C263.09 189.933 263.522 190.056 264.077 190.056ZM269.885 191V183.064H271.101L271.181 184.488C271.437 183.987 271.805 183.592 272.285 183.304C272.765 183.016 273.309 182.872 273.917 182.872C274.856 182.872 275.603 183.16 276.157 183.736C276.723 184.301 277.005 185.176 277.005 186.36V191H275.661V186.504C275.661 184.851 274.979 184.024 273.613 184.024C272.931 184.024 272.36 184.275 271.901 184.776C271.453 185.267 271.229 185.971 271.229 186.888V191H269.885ZM282.178 191C281.452 191 280.882 190.824 280.466 190.472C280.05 190.12 279.842 189.485 279.842 188.568V184.2H278.465V183.064H279.842L280.018 181.16H281.186V183.064H283.522V184.2H281.186V188.568C281.186 189.069 281.287 189.411 281.49 189.592C281.692 189.763 282.05 189.848 282.562 189.848H283.394V191H282.178ZM285.693 191.08C285.426 191.08 285.202 190.995 285.021 190.824C284.85 190.643 284.765 190.424 284.765 190.168C284.765 189.912 284.85 189.699 285.021 189.528C285.202 189.347 285.426 189.256 285.693 189.256C285.949 189.256 286.162 189.347 286.333 189.528C286.514 189.699 286.605 189.912 286.605 190.168C286.605 190.424 286.514 190.643 286.333 190.824C286.162 190.995 285.949 191.08 285.693 191.08ZM292.002 191.192C291.245 191.192 290.562 191.021 289.954 190.68C289.357 190.328 288.882 189.843 288.53 189.224C288.189 188.595 288.018 187.864 288.018 187.032C288.018 186.2 288.189 185.475 288.53 184.856C288.882 184.227 289.357 183.741 289.954 183.4C290.562 183.048 291.245 182.872 292.002 182.872C292.941 182.872 293.73 183.117 294.37 183.608C295.021 184.099 295.431 184.755 295.602 185.576H294.226C294.119 185.085 293.858 184.707 293.442 184.44C293.026 184.163 292.541 184.024 291.986 184.024C291.538 184.024 291.117 184.136 290.722 184.36C290.327 184.584 290.007 184.92 289.762 185.368C289.517 185.816 289.394 186.371 289.394 187.032C289.394 187.693 289.517 188.248 289.762 188.696C290.007 189.144 290.327 189.485 290.722 189.72C291.117 189.944 291.538 190.056 291.986 190.056C292.541 190.056 293.026 189.923 293.442 189.656C293.858 189.379 294.119 188.989 294.226 188.488H295.602C295.442 189.288 295.037 189.939 294.386 190.44C293.735 190.941 292.941 191.192 292.002 191.192ZM301.095 191.192C300.348 191.192 299.676 191.021 299.079 190.68C298.482 190.339 298.007 189.859 297.655 189.24C297.314 188.611 297.143 187.875 297.143 187.032C297.143 186.189 297.319 185.459 297.671 184.84C298.023 184.211 298.498 183.725 299.095 183.384C299.703 183.043 300.38 182.872 301.127 182.872C301.874 182.872 302.546 183.043 303.143 183.384C303.74 183.725 304.21 184.211 304.551 184.84C304.903 185.459 305.079 186.189 305.079 187.032C305.079 187.875 304.903 188.611 304.551 189.24C304.199 189.859 303.719 190.339 303.111 190.68C302.514 191.021 301.842 191.192 301.095 191.192ZM301.095 190.04C301.554 190.04 301.98 189.928 302.375 189.704C302.77 189.48 303.09 189.144 303.335 188.696C303.58 188.248 303.703 187.693 303.703 187.032C303.703 186.371 303.58 185.816 303.335 185.368C303.1 184.92 302.786 184.584 302.391 184.36C301.996 184.136 301.575 184.024 301.127 184.024C300.668 184.024 300.242 184.136 299.847 184.36C299.452 184.584 299.132 184.92 298.887 185.368C298.642 185.816 298.519 186.371 298.519 187.032C298.519 187.693 298.642 188.248 298.887 188.696C299.132 189.144 299.447 189.48 299.831 189.704C300.226 189.928 300.647 190.04 301.095 190.04ZM306.948 191V183.064H308.164L308.26 184.216C308.516 183.789 308.857 183.459 309.284 183.224C309.71 182.989 310.19 182.872 310.724 182.872C311.353 182.872 311.892 183 312.34 183.256C312.798 183.512 313.15 183.901 313.396 184.424C313.673 183.944 314.052 183.565 314.532 183.288C315.022 183.011 315.55 182.872 316.116 182.872C317.065 182.872 317.822 183.16 318.388 183.736C318.953 184.301 319.236 185.176 319.236 186.36V191H317.908V186.504C317.908 185.683 317.742 185.064 317.412 184.648C317.081 184.232 316.606 184.024 315.988 184.024C315.348 184.024 314.814 184.275 314.388 184.776C313.972 185.267 313.764 185.971 313.764 186.888V191H312.42V186.504C312.42 185.683 312.254 185.064 311.924 184.648C311.593 184.232 311.118 184.024 310.5 184.024C309.87 184.024 309.342 184.275 308.916 184.776C308.5 185.267 308.292 185.971 308.292 186.888V191H306.948Z" fill="#F9F9F7"/>
<path d="M67.6569 239.657C66.7202 240.593 64.7616 242.552 63.4138 243.9C62.6327 244.681 61.3677 244.681 60.5866 243.9C59.2623 242.576 57.3416 240.655 56.3431 239.657C53.219 236.533 53.219 231.467 56.3431 228.343C59.4673 225.219 64.5327 225.219 67.6569 228.343C70.781 231.467 70.781 236.533 67.6569 239.657Z" stroke="white" stroke-width="2" stroke-linecap="round" stroke-linejoin="round"/>
<path d="M65 234C65 235.657 63.6569 237 62 237C60.3431 237 59 235.657 59 234C59 232.343 60.3431 231 62 231C63.6569 231 65 232.343 65 234Z" stroke="white" stroke-width="2" stroke-linecap="round" stroke-linejoin="round"/>
<path d="M98.88 240.192C98.144 240.192 97.4827 240.059 96.896 239.792C96.3093 239.515 95.8453 239.136 95.504 238.656C95.1733 238.165 95.008 237.6 95.008 236.96C95.008 236.277 95.2053 235.664 95.6 235.12C96.0053 234.576 96.5387 234.213 97.2 234.032C96.592 233.829 96.1227 233.504 95.792 233.056C95.4613 232.608 95.296 232.117 95.296 231.584C95.296 231.04 95.44 230.544 95.728 230.096C96.016 229.637 96.4267 229.275 96.96 229.008C97.4933 228.741 98.1333 228.608 98.88 228.608C99.6267 228.608 100.267 228.741 100.8 229.008C101.333 229.275 101.744 229.637 102.032 230.096C102.32 230.544 102.464 231.04 102.464 231.584C102.464 232.107 102.299 232.597 101.968 233.056C101.637 233.504 101.168 233.829 100.56 234.032C101.221 234.213 101.749 234.576 102.144 235.12C102.549 235.664 102.752 236.277 102.752 236.96C102.752 237.6 102.581 238.165 102.24 238.656C101.909 239.136 101.451 239.515 100.864 239.792C100.277 240.059 99.616 240.192 98.88 240.192ZM98.88 233.552C99.5627 233.552 100.101 233.381 100.496 233.04C100.901 232.688 101.104 232.229 101.104 231.664C101.104 231.035 100.907 230.56 100.512 230.24C100.117 229.92 99.5733 229.76 98.88 229.76C98.1867 229.76 97.6427 229.92 97.248 230.24C96.864 230.56 96.672 231.035 96.672 231.664C96.672 232.229 96.8693 232.688 97.264 233.04C97.6587 233.381 98.1973 233.552 98.88 233.552ZM98.88 239.008C99.7227 239.008 100.352 238.816 100.768 238.432C101.195 238.037 101.408 237.52 101.408 236.88C101.408 236.155 101.179 235.605 100.72 235.232C100.261 234.859 99.648 234.672 98.88 234.672C98.112 234.672 97.4987 234.859 97.04 235.232C96.5813 235.605 96.352 236.155 96.352 236.88C96.352 237.52 96.56 238.037 96.976 238.432C97.4027 238.816 98.0373 239.008 98.88 239.008ZM108.438 240.192C107.723 240.192 107.078 240.064 106.502 239.808C105.926 239.541 105.462 239.147 105.11 238.624C104.768 238.101 104.587 237.451 104.566 236.672H105.926C105.936 237.312 106.16 237.867 106.598 238.336C107.035 238.795 107.648 239.024 108.438 239.024C109.227 239.024 109.819 238.805 110.214 238.368C110.619 237.931 110.822 237.403 110.822 236.784C110.822 236.261 110.694 235.835 110.438 235.504C110.192 235.173 109.856 234.928 109.43 234.768C109.014 234.608 108.555 234.528 108.054 234.528H107.222V233.392H108.054C108.779 233.392 109.344 233.227 109.75 232.896C110.166 232.565 110.374 232.101 110.374 231.504C110.374 231.003 110.208 230.592 109.878 230.272C109.558 229.941 109.078 229.776 108.438 229.776C107.819 229.776 107.323 229.963 106.95 230.336C106.576 230.699 106.368 231.157 106.326 231.712H104.966C104.998 231.104 105.158 230.565 105.446 230.096C105.744 229.627 106.15 229.264 106.662 229.008C107.174 228.741 107.766 228.608 108.438 228.608C109.163 228.608 109.766 228.736 110.246 228.992C110.736 229.248 111.104 229.589 111.35 230.016C111.606 230.443 111.734 230.912 111.734 231.424C111.734 231.989 111.579 232.507 111.27 232.976C110.96 233.435 110.496 233.744 109.878 233.904C110.539 234.043 111.088 234.357 111.526 234.848C111.963 235.339 112.182 235.984 112.182 236.784C112.182 237.403 112.038 237.973 111.75 238.496C111.472 239.008 111.056 239.419 110.502 239.728C109.947 240.037 109.259 240.192 108.438 240.192ZM115.018 240L119.466 229.952H113.322V228.8H120.842V229.808L116.442 240H115.018ZM129.16 240.016L126.088 228.8H127.528L129.944 238.416L132.696 228.8H134.184L136.856 238.416L139.304 228.8H140.744L137.608 240H136.072L133.4 230.752L130.664 240L129.16 240.016ZM141.584 240.08C141.317 240.08 141.093 239.995 140.912 239.824C140.741 239.643 140.656 239.424 140.656 239.168C140.656 238.912 140.741 238.699 140.912 238.528C141.093 238.347 141.317 238.256 141.584 238.256C141.84 238.256 142.053 238.347 142.224 238.528C142.405 238.699 142.496 238.912 142.496 239.168C142.496 239.424 142.405 239.643 142.224 239.824C142.053 239.995 141.84 240.08 141.584 240.08ZM148.559 240V228.8H150.127L154.159 236.608L158.159 228.8H159.743V240H158.399V231.2L154.655 238.4H153.647L149.903 231.216V240H148.559ZM164.666 240.192C164.005 240.192 163.455 240.08 163.018 239.856C162.581 239.632 162.255 239.333 162.042 238.96C161.829 238.587 161.722 238.181 161.722 237.744C161.722 236.933 162.031 236.309 162.65 235.872C163.269 235.435 164.111 235.216 165.178 235.216H167.322V235.12C167.322 234.427 167.141 233.904 166.778 233.552C166.415 233.189 165.93 233.008 165.322 233.008C164.799 233.008 164.346 233.141 163.962 233.408C163.589 233.664 163.354 234.043 163.258 234.544H161.882C161.935 233.968 162.127 233.483 162.458 233.088C162.799 232.693 163.221 232.395 163.722 232.192C164.223 231.979 164.757 231.872 165.322 231.872C166.431 231.872 167.263 232.171 167.818 232.768C168.383 233.355 168.666 234.139 168.666 235.12V240H167.466L167.386 238.576C167.162 239.024 166.831 239.408 166.394 239.728C165.967 240.037 165.391 240.192 164.666 240.192ZM164.874 239.056C165.386 239.056 165.823 238.923 166.186 238.656C166.559 238.389 166.842 238.043 167.034 237.616C167.226 237.189 167.322 236.741 167.322 236.272V236.256H165.29C164.501 236.256 163.941 236.395 163.61 236.672C163.29 236.939 163.13 237.275 163.13 237.68C163.13 238.096 163.279 238.432 163.578 238.688C163.887 238.933 164.319 239.056 164.874 239.056ZM170.682 240V232.064H171.898L172.01 233.584C172.255 233.061 172.629 232.645 173.13 232.336C173.631 232.027 174.25 231.872 174.986 231.872V233.28H174.618C174.149 233.28 173.717 233.365 173.322 233.536C172.927 233.696 172.613 233.973 172.378 234.368C172.143 234.763 172.026 235.307 172.026 236V240H170.682ZM179.535 240.192C178.585 240.192 177.796 239.952 177.167 239.472C176.537 238.992 176.169 238.341 176.063 237.52H177.439C177.524 237.936 177.743 238.299 178.095 238.608C178.457 238.907 178.943 239.056 179.551 239.056C180.116 239.056 180.532 238.939 180.799 238.704C181.065 238.459 181.199 238.171 181.199 237.84C181.199 237.36 181.023 237.04 180.671 236.88C180.329 236.72 179.844 236.576 179.215 236.448C178.788 236.363 178.361 236.24 177.935 236.08C177.508 235.92 177.151 235.696 176.863 235.408C176.575 235.109 176.431 234.72 176.431 234.24C176.431 233.547 176.687 232.981 177.199 232.544C177.721 232.096 178.425 231.872 179.311 231.872C180.153 231.872 180.841 232.085 181.375 232.512C181.919 232.928 182.233 233.525 182.319 234.304H180.991C180.937 233.899 180.761 233.584 180.463 233.36C180.175 233.125 179.785 233.008 179.295 233.008C178.815 233.008 178.441 233.109 178.175 233.312C177.919 233.515 177.791 233.781 177.791 234.112C177.791 234.432 177.956 234.683 178.287 234.864C178.628 235.045 179.087 235.2 179.663 235.328C180.153 235.435 180.617 235.568 181.055 235.728C181.503 235.877 181.865 236.107 182.143 236.416C182.431 236.715 182.575 237.152 182.575 237.728C182.585 238.443 182.313 239.035 181.759 239.504C181.215 239.963 180.473 240.192 179.535 240.192ZM184.495 240V228.48H185.839V233.424C186.105 232.933 186.484 232.555 186.975 232.288C187.465 232.011 187.999 231.872 188.575 231.872C189.492 231.872 190.228 232.16 190.783 232.736C191.337 233.301 191.615 234.176 191.615 235.36V240H190.287V235.504C190.287 233.851 189.62 233.024 188.287 233.024C187.593 233.024 187.012 233.275 186.543 233.776C186.073 234.267 185.839 234.971 185.839 235.888V240H184.495ZM196.291 240.192C195.63 240.192 195.08 240.08 194.643 239.856C194.206 239.632 193.88 239.333 193.667 238.96C193.454 238.587 193.347 238.181 193.347 237.744C193.347 236.933 193.656 236.309 194.275 235.872C194.894 235.435 195.736 235.216 196.803 235.216H198.947V235.12C198.947 234.427 198.766 233.904 198.403 233.552C198.04 233.189 197.555 233.008 196.947 233.008C196.424 233.008 195.971 233.141 195.587 233.408C195.214 233.664 194.979 234.043 194.883 234.544H193.507C193.56 233.968 193.752 233.483 194.083 233.088C194.424 232.693 194.846 232.395 195.347 232.192C195.848 231.979 196.382 231.872 196.947 231.872C198.056 231.872 198.888 232.171 199.443 232.768C200.008 233.355 200.291 234.139 200.291 235.12V240H199.091L199.011 238.576C198.787 239.024 198.456 239.408 198.019 239.728C197.592 240.037 197.016 240.192 196.291 240.192ZM196.499 239.056C197.011 239.056 197.448 238.923 197.811 238.656C198.184 238.389 198.467 238.043 198.659 237.616C198.851 237.189 198.947 236.741 198.947 236.272V236.256H196.915C196.126 236.256 195.566 236.395 195.235 236.672C194.915 236.939 194.755 237.275 194.755 237.68C194.755 238.096 194.904 238.432 195.203 238.688C195.512 238.933 195.944 239.056 196.499 239.056ZM202.307 240V228.48H203.651V240H202.307ZM205.854 240V228.48H207.198V240H205.854ZM213.715 240V228.8H215.059V238.928H220.275V240H213.715ZM224.682 240.192C224.02 240.192 223.471 240.08 223.034 239.856C222.596 239.632 222.271 239.333 222.058 238.96C221.844 238.587 221.738 238.181 221.738 237.744C221.738 236.933 222.047 236.309 222.666 235.872C223.284 235.435 224.127 235.216 225.194 235.216H227.338V235.12C227.338 234.427 227.156 233.904 226.794 233.552C226.431 233.189 225.946 233.008 225.338 233.008C224.815 233.008 224.362 233.141 223.978 233.408C223.604 233.664 223.37 234.043 223.274 234.544H221.898C221.951 233.968 222.143 233.483 222.474 233.088C222.815 232.693 223.236 232.395 223.738 232.192C224.239 231.979 224.772 231.872 225.338 231.872C226.447 231.872 227.279 232.171 227.834 232.768C228.399 233.355 228.682 234.139 228.682 235.12V240H227.482L227.402 238.576C227.178 239.024 226.847 239.408 226.41 239.728C225.983 240.037 225.407 240.192 224.682 240.192ZM224.89 239.056C225.402 239.056 225.839 238.923 226.202 238.656C226.575 238.389 226.858 238.043 227.05 237.616C227.242 237.189 227.338 236.741 227.338 236.272V236.256H225.306C224.516 236.256 223.956 236.395 223.626 236.672C223.306 236.939 223.146 237.275 223.146 237.68C223.146 238.096 223.295 238.432 223.594 238.688C223.903 238.933 224.335 239.056 224.89 239.056ZM230.698 240V232.064H231.914L231.994 233.488C232.25 232.987 232.618 232.592 233.098 232.304C233.578 232.016 234.122 231.872 234.73 231.872C235.668 231.872 236.415 232.16 236.97 232.736C237.535 233.301 237.818 234.176 237.818 235.36V240H236.474V235.504C236.474 233.851 235.791 233.024 234.426 233.024C233.743 233.024 233.172 233.275 232.714 233.776C232.266 234.267 232.042 234.971 232.042 235.888V240H230.698ZM243.422 240.192C242.665 240.192 241.993 240.021 241.406 239.68C240.819 239.328 240.355 238.843 240.014 238.224C239.683 237.605 239.518 236.875 239.518 236.032C239.518 235.2 239.683 234.475 240.014 233.856C240.345 233.227 240.803 232.741 241.39 232.4C241.987 232.048 242.675 231.872 243.454 231.872C244.222 231.872 244.883 232.048 245.438 232.4C246.003 232.741 246.435 233.195 246.734 233.76C247.033 234.325 247.182 234.933 247.182 235.584C247.182 235.701 247.177 235.819 247.166 235.936C247.166 236.053 247.166 236.187 247.166 236.336H240.846C240.878 236.944 241.017 237.451 241.262 237.856C241.518 238.251 241.833 238.549 242.206 238.752C242.59 238.955 242.995 239.056 243.422 239.056C243.977 239.056 244.441 238.928 244.814 238.672C245.187 238.416 245.459 238.069 245.63 237.632H246.958C246.745 238.368 246.334 238.981 245.726 239.472C245.129 239.952 244.361 240.192 243.422 240.192ZM243.422 233.008C242.782 233.008 242.211 233.205 241.71 233.6C241.219 233.984 240.937 234.549 240.862 235.296H245.854C245.822 234.581 245.577 234.021 245.118 233.616C244.659 233.211 244.094 233.008 243.422 233.008ZM253.278 240V228.8H254.846L258.878 236.608L262.878 228.8H264.462V240H263.118V231.2L259.374 238.4H258.366L254.622 231.216V240H253.278ZM269.385 240.192C268.723 240.192 268.174 240.08 267.737 239.856C267.299 239.632 266.974 239.333 266.761 238.96C266.547 238.587 266.441 238.181 266.441 237.744C266.441 236.933 266.75 236.309 267.369 235.872C267.987 235.435 268.83 235.216 269.897 235.216H272.041V235.12C272.041 234.427 271.859 233.904 271.497 233.552C271.134 233.189 270.649 233.008 270.041 233.008C269.518 233.008 269.065 233.141 268.681 233.408C268.307 233.664 268.073 234.043 267.977 234.544H266.601C266.654 233.968 266.846 233.483 267.177 233.088C267.518 232.693 267.939 232.395 268.441 232.192C268.942 231.979 269.475 231.872 270.041 231.872C271.15 231.872 271.982 232.171 272.537 232.768C273.102 233.355 273.385 234.139 273.385 235.12V240H272.185L272.105 238.576C271.881 239.024 271.55 239.408 271.113 239.728C270.686 240.037 270.11 240.192 269.385 240.192ZM269.593 239.056C270.105 239.056 270.542 238.923 270.905 238.656C271.278 238.389 271.561 238.043 271.753 237.616C271.945 237.189 272.041 236.741 272.041 236.272V236.256H270.009C269.219 236.256 268.659 236.395 268.329 236.672C268.009 236.939 267.849 237.275 267.849 237.68C267.849 238.096 267.998 238.432 268.297 238.688C268.606 238.933 269.038 239.056 269.593 239.056ZM275.401 240V232.064H276.617L276.729 233.584C276.974 233.061 277.348 232.645 277.849 232.336C278.35 232.027 278.969 231.872 279.705 231.872V233.28H279.337C278.868 233.28 278.436 233.365 278.041 233.536C277.646 233.696 277.332 233.973 277.097 234.368C276.862 234.763 276.745 235.307 276.745 236V240H275.401ZM284.253 240.192C283.304 240.192 282.515 239.952 281.885 239.472C281.256 238.992 280.888 238.341 280.781 237.52H282.157C282.243 237.936 282.461 238.299 282.813 238.608C283.176 238.907 283.661 239.056 284.269 239.056C284.835 239.056 285.251 238.939 285.517 238.704C285.784 238.459 285.917 238.171 285.917 237.84C285.917 237.36 285.741 237.04 285.389 236.88C285.048 236.72 284.563 236.576 283.933 236.448C283.507 236.363 283.08 236.24 282.653 236.08C282.227 235.92 281.869 235.696 281.581 235.408C281.293 235.109 281.149 234.72 281.149 234.24C281.149 233.547 281.405 232.981 281.917 232.544C282.44 232.096 283.144 231.872 284.029 231.872C284.872 231.872 285.56 232.085 286.093 232.512C286.637 232.928 286.952 233.525 287.037 234.304H285.709C285.656 233.899 285.48 233.584 285.181 233.36C284.893 233.125 284.504 233.008 284.013 233.008C283.533 233.008 283.16 233.109 282.893 233.312C282.637 233.515 282.509 233.781 282.509 234.112C282.509 234.432 282.675 234.683 283.005 234.864C283.347 235.045 283.805 235.2 284.381 235.328C284.872 235.435 285.336 235.568 285.773 235.728C286.221 235.877 286.584 236.107 286.861 236.416C287.149 236.715 287.293 237.152 287.293 237.728C287.304 238.443 287.032 239.035 286.477 239.504C285.933 239.963 285.192 240.192 284.253 240.192ZM289.213 240V228.48H290.557V233.424C290.824 232.933 291.203 232.555 291.693 232.288C292.184 232.011 292.717 231.872 293.293 231.872C294.211 231.872 294.947 232.16 295.501 232.736C296.056 233.301 296.333 234.176 296.333 235.36V240H295.005V235.504C295.005 233.851 294.339 233.024 293.005 233.024C292.312 233.024 291.731 233.275 291.261 233.776C290.792 234.267 290.557 234.971 290.557 235.888V240H289.213ZM301.01 240.192C300.348 240.192 299.799 240.08 299.362 239.856C298.924 239.632 298.599 239.333 298.386 238.96C298.172 238.587 298.066 238.181 298.066 237.744C298.066 236.933 298.375 236.309 298.994 235.872C299.612 235.435 300.455 235.216 301.522 235.216H303.666V235.12C303.666 234.427 303.484 233.904 303.122 233.552C302.759 233.189 302.274 233.008 301.666 233.008C301.143 233.008 300.69 233.141 300.306 233.408C299.932 233.664 299.698 234.043 299.602 234.544H298.226C298.279 233.968 298.471 233.483 298.802 233.088C299.143 232.693 299.564 232.395 300.066 232.192C300.567 231.979 301.1 231.872 301.666 231.872C302.775 231.872 303.607 232.171 304.162 232.768C304.727 233.355 305.01 234.139 305.01 235.12V240H303.81L303.73 238.576C303.506 239.024 303.175 239.408 302.738 239.728C302.311 240.037 301.735 240.192 301.01 240.192ZM301.218 239.056C301.73 239.056 302.167 238.923 302.53 238.656C302.903 238.389 303.186 238.043 303.378 237.616C303.57 237.189 303.666 236.741 303.666 236.272V236.256H301.634C300.844 236.256 300.284 236.395 299.954 236.672C299.634 236.939 299.474 237.275 299.474 237.68C299.474 238.096 299.623 238.432 299.922 238.688C300.231 238.933 300.663 239.056 301.218 239.056ZM307.026 240V228.48H308.37V240H307.026ZM310.573 240V228.48H311.917V240H310.573ZM317.256 240C316.53 240 315.96 239.824 315.544 239.472C315.128 239.12 314.92 238.485 314.92 237.568V233.2H313.544V232.064H314.92L315.096 230.16H316.264V232.064H318.6V233.2H316.264V237.568C316.264 238.069 316.365 238.411 316.568 238.592C316.77 238.763 317.128 238.848 317.64 238.848H318.472V240H317.256ZM323.704 240.192C322.958 240.192 322.286 240.021 321.688 239.68C321.091 239.339 320.616 238.859 320.264 238.24C319.923 237.611 319.752 236.875 319.752 236.032C319.752 235.189 319.928 234.459 320.28 233.84C320.632 233.211 321.107 232.725 321.704 232.384C322.312 232.043 322.99 231.872 323.736 231.872C324.483 231.872 325.155 232.043 325.752 232.384C326.35 232.725 326.819 233.211 327.16 233.84C327.512 234.459 327.688 235.189 327.688 236.032C327.688 236.875 327.512 237.611 327.16 238.24C326.808 238.859 326.328 239.339 325.72 239.68C325.123 240.021 324.451 240.192 323.704 240.192ZM323.704 239.04C324.163 239.04 324.59 238.928 324.984 238.704C325.379 238.48 325.699 238.144 325.944 237.696C326.19 237.248 326.312 236.693 326.312 236.032C326.312 235.371 326.19 234.816 325.944 234.368C325.71 233.92 325.395 233.584 325 233.36C324.606 233.136 324.184 233.024 323.736 233.024C323.278 233.024 322.851 233.136 322.456 233.36C322.062 233.584 321.742 233.92 321.496 234.368C321.251 234.816 321.128 235.371 321.128 236.032C321.128 236.693 321.251 237.248 321.496 237.696C321.742 238.144 322.056 238.48 322.44 238.704C322.835 238.928 323.256 239.04 323.704 239.04ZM330.86 240L328.54 232.064H329.884L331.564 238.288L333.42 232.064H334.94L336.812 238.288L338.476 232.064H339.836L337.516 240H336.14L334.188 233.456L332.236 240H330.86ZM341.323 240V232.064H342.539L342.619 233.488C342.875 232.987 343.243 232.592 343.723 232.304C344.203 232.016 344.747 231.872 345.355 231.872C346.293 231.872 347.04 232.16 347.595 232.736C348.16 233.301 348.443 234.176 348.443 235.36V240H347.099V235.504C347.099 233.851 346.416 233.024 345.051 233.024C344.368 233.024 343.797 233.275 343.339 233.776C342.891 234.267 342.667 234.971 342.667 235.888V240H341.323ZM349.407 241.904L350.335 238.368H351.727L350.335 241.904H349.407ZM95.184 264V252.8H96.528V264H95.184ZM98.1988 264L102.327 252.8H103.751L107.863 264H106.439L105.415 261.12H100.647L99.6068 264H98.1988ZM101.047 260.032H105.015L103.031 254.496L101.047 260.032ZM117.57 264.192C116.802 264.192 116.135 264.053 115.57 263.776C115.005 263.499 114.551 263.12 114.21 262.64C113.879 262.149 113.677 261.595 113.602 260.976H114.914C115.042 261.595 115.341 262.096 115.81 262.48C116.279 262.853 116.871 263.04 117.586 263.04C118.119 263.04 118.578 262.917 118.962 262.672C119.346 262.416 119.639 262.075 119.842 261.648C120.055 261.221 120.162 260.747 120.162 260.224C120.162 259.392 119.927 258.72 119.458 258.208C118.989 257.696 118.381 257.44 117.634 257.44C117.015 257.44 116.487 257.579 116.05 257.856C115.613 258.133 115.293 258.496 115.09 258.944H113.81L114.77 252.8H120.642V253.968H115.81L115.154 257.376C115.41 257.067 115.762 256.811 116.21 256.608C116.669 256.405 117.191 256.304 117.778 256.304C118.514 256.304 119.154 256.475 119.698 256.816C120.253 257.157 120.685 257.621 120.994 258.208C121.303 258.795 121.458 259.461 121.458 260.208C121.458 260.923 121.303 261.584 120.994 262.192C120.695 262.8 120.253 263.285 119.666 263.648C119.09 264.011 118.391 264.192 117.57 264.192ZM127.927 264.192C126.935 264.192 126.076 263.952 125.351 263.472C124.636 262.981 124.087 262.304 123.703 261.44C123.319 260.565 123.127 259.552 123.127 258.4C123.127 257.248 123.319 256.24 123.703 255.376C124.087 254.501 124.636 253.824 125.351 253.344C126.076 252.853 126.935 252.608 127.927 252.608C128.919 252.608 129.772 252.853 130.487 253.344C131.202 253.824 131.751 254.501 132.135 255.376C132.519 256.24 132.711 257.248 132.711 258.4C132.711 259.552 132.519 260.565 132.135 261.44C131.751 262.304 131.202 262.981 130.487 263.472C129.772 263.952 128.919 264.192 127.927 264.192ZM127.927 263.008C128.578 263.008 129.159 262.827 129.671 262.464C130.194 262.091 130.599 261.563 130.887 260.88C131.186 260.187 131.335 259.36 131.335 258.4C131.335 257.44 131.186 256.619 130.887 255.936C130.599 255.253 130.194 254.731 129.671 254.368C129.159 253.995 128.578 253.808 127.927 253.808C127.266 253.808 126.679 253.995 126.167 254.368C125.655 254.731 125.25 255.253 124.951 255.936C124.652 256.619 124.503 257.44 124.503 258.4C124.503 259.36 124.652 260.187 124.951 260.88C125.25 261.563 125.655 262.091 126.167 262.464C126.679 262.827 127.266 263.008 127.927 263.008ZM135.757 264V254.304L133.949 254.704V253.776L136.205 252.8H137.117V264H135.757ZM143.289 264.192C142.521 264.192 141.854 264.053 141.289 263.776C140.724 263.499 140.27 263.12 139.929 262.64C139.598 262.149 139.396 261.595 139.321 260.976H140.633C140.761 261.595 141.06 262.096 141.529 262.48C141.998 262.853 142.59 263.04 143.305 263.04C143.838 263.04 144.297 262.917 144.681 262.672C145.065 262.416 145.358 262.075 145.561 261.648C145.774 261.221 145.881 260.747 145.881 260.224C145.881 259.392 145.646 258.72 145.177 258.208C144.708 257.696 144.1 257.44 143.353 257.44C142.734 257.44 142.206 257.579 141.769 257.856C141.332 258.133 141.012 258.496 140.809 258.944H139.529L140.489 252.8H146.361V253.968H141.529L140.873 257.376C141.129 257.067 141.481 256.811 141.929 256.608C142.388 256.405 142.91 256.304 143.497 256.304C144.233 256.304 144.873 256.475 145.417 256.816C145.972 257.157 146.404 257.621 146.713 258.208C147.022 258.795 147.177 259.461 147.177 260.208C147.177 260.923 147.022 261.584 146.713 262.192C146.414 262.8 145.972 263.285 145.385 263.648C144.809 264.011 144.11 264.192 143.289 264.192ZM152.974 264.192C152.238 264.192 151.576 264.059 150.99 263.792C150.403 263.515 149.939 263.136 149.598 262.656C149.267 262.165 149.102 261.6 149.102 260.96C149.102 260.277 149.299 259.664 149.694 259.12C150.099 258.576 150.632 258.213 151.294 258.032C150.686 257.829 150.216 257.504 149.886 257.056C149.555 256.608 149.39 256.117 149.39 255.584C149.39 255.04 149.534 254.544 149.822 254.096C150.11 253.637 150.52 253.275 151.054 253.008C151.587 252.741 152.227 252.608 152.974 252.608C153.72 252.608 154.36 252.741 154.894 253.008C155.427 253.275 155.838 253.637 156.126 254.096C156.414 254.544 156.558 255.04 156.558 255.584C156.558 256.107 156.392 256.597 156.062 257.056C155.731 257.504 155.262 257.829 154.654 258.032C155.315 258.213 155.843 258.576 156.238 259.12C156.643 259.664 156.846 260.277 156.846 260.96C156.846 261.6 156.675 262.165 156.334 262.656C156.003 263.136 155.544 263.515 154.958 263.792C154.371 264.059 153.71 264.192 152.974 264.192ZM152.974 257.552C153.656 257.552 154.195 257.381 154.59 257.04C154.995 256.688 155.198 256.229 155.198 255.664C155.198 255.035 155 254.56 154.606 254.24C154.211 253.92 153.667 253.76 152.974 253.76C152.28 253.76 151.736 253.92 151.342 254.24C150.958 254.56 150.766 255.035 150.766 255.664C150.766 256.229 150.963 256.688 151.358 257.04C151.752 257.381 152.291 257.552 152.974 257.552ZM152.974 263.008C153.816 263.008 154.446 262.816 154.862 262.432C155.288 262.037 155.502 261.52 155.502 260.88C155.502 260.155 155.272 259.605 154.814 259.232C154.355 258.859 153.742 258.672 152.974 258.672C152.206 258.672 151.592 258.859 151.134 259.232C150.675 259.605 150.446 260.155 150.446 260.88C150.446 261.52 150.654 262.037 151.07 262.432C151.496 262.816 152.131 263.008 152.974 263.008ZM157.891 265.904L158.819 262.368H160.211L158.819 265.904H157.891ZM166.122 264V252.8H167.466V262.928H172.682V264H166.122ZM177.72 264.192C176.973 264.192 176.301 264.021 175.704 263.68C175.107 263.339 174.632 262.859 174.28 262.24C173.939 261.611 173.768 260.875 173.768 260.032C173.768 259.189 173.944 258.459 174.296 257.84C174.648 257.211 175.123 256.725 175.72 256.384C176.328 256.043 177.005 255.872 177.752 255.872C178.499 255.872 179.171 256.043 179.768 256.384C180.365 256.725 180.835 257.211 181.176 257.84C181.528 258.459 181.704 259.189 181.704 260.032C181.704 260.875 181.528 261.611 181.176 262.24C180.824 262.859 180.344 263.339 179.736 263.68C179.139 264.021 178.467 264.192 177.72 264.192ZM177.72 263.04C178.179 263.04 178.605 262.928 179 262.704C179.395 262.48 179.715 262.144 179.96 261.696C180.205 261.248 180.328 260.693 180.328 260.032C180.328 259.371 180.205 258.816 179.96 258.368C179.725 257.92 179.411 257.584 179.016 257.36C178.621 257.136 178.2 257.024 177.752 257.024C177.293 257.024 176.867 257.136 176.472 257.36C176.077 257.584 175.757 257.92 175.512 258.368C175.267 258.816 175.144 259.371 175.144 260.032C175.144 260.693 175.267 261.248 175.512 261.696C175.757 262.144 176.072 262.48 176.456 262.704C176.851 262.928 177.272 263.04 177.72 263.04ZM186.613 264.192C185.663 264.192 184.874 263.952 184.245 263.472C183.615 262.992 183.247 262.341 183.141 261.52H184.517C184.602 261.936 184.821 262.299 185.173 262.608C185.535 262.907 186.021 263.056 186.629 263.056C187.194 263.056 187.61 262.939 187.877 262.704C188.143 262.459 188.277 262.171 188.277 261.84C188.277 261.36 188.101 261.04 187.749 260.88C187.407 260.72 186.922 260.576 186.293 260.448C185.866 260.363 185.439 260.24 185.013 260.08C184.586 259.92 184.229 259.696 183.941 259.408C183.653 259.109 183.509 258.72 183.509 258.24C183.509 257.547 183.765 256.981 184.277 256.544C184.799 256.096 185.503 255.872 186.389 255.872C187.231 255.872 187.919 256.085 188.453 256.512C188.997 256.928 189.311 257.525 189.397 258.304H188.069C188.015 257.899 187.839 257.584 187.541 257.36C187.253 257.125 186.863 257.008 186.373 257.008C185.893 257.008 185.519 257.109 185.253 257.312C184.997 257.515 184.869 257.781 184.869 258.112C184.869 258.432 185.034 258.683 185.365 258.864C185.706 259.045 186.165 259.2 186.741 259.328C187.231 259.435 187.695 259.568 188.133 259.728C188.581 259.877 188.943 260.107 189.221 260.416C189.509 260.715 189.653 261.152 189.653 261.728C189.663 262.443 189.391 263.035 188.837 263.504C188.293 263.963 187.551 264.192 186.613 264.192ZM195.183 264L199.311 252.8H200.735L204.847 264H203.423L202.399 261.12H197.631L196.591 264H195.183ZM198.031 260.032H201.999L200.015 254.496L198.031 260.032ZM206.432 264V256.064H207.648L207.728 257.488C207.984 256.987 208.352 256.592 208.832 256.304C209.312 256.016 209.856 255.872 210.464 255.872C211.403 255.872 212.149 256.16 212.704 256.736C213.269 257.301 213.552 258.176 213.552 259.36V264H212.208V259.504C212.208 257.851 211.525 257.024 210.16 257.024C209.477 257.024 208.907 257.275 208.448 257.776C208 258.267 207.776 258.971 207.776 259.888V264H206.432ZM218.724 261.504C218.276 261.504 217.866 261.445 217.492 261.328L216.692 262.08C216.81 262.165 216.954 262.24 217.124 262.304C217.306 262.357 217.562 262.411 217.892 262.464C218.223 262.507 218.687 262.555 219.284 262.608C220.351 262.683 221.114 262.928 221.572 263.344C222.031 263.76 222.26 264.304 222.26 264.976C222.26 265.435 222.132 265.872 221.876 266.288C221.631 266.704 221.247 267.045 220.724 267.312C220.212 267.579 219.551 267.712 218.74 267.712C218.026 267.712 217.391 267.616 216.836 267.424C216.282 267.243 215.85 266.96 215.54 266.576C215.231 266.203 215.076 265.728 215.076 265.152C215.076 264.853 215.156 264.528 215.316 264.176C215.476 263.835 215.775 263.509 216.212 263.2C215.978 263.104 215.775 263.003 215.604 262.896C215.444 262.779 215.295 262.651 215.156 262.512V262.144L216.516 260.8C215.887 260.267 215.572 259.563 215.572 258.688C215.572 258.165 215.695 257.691 215.94 257.264C216.186 256.837 216.543 256.501 217.012 256.256C217.482 256 218.052 255.872 218.724 255.872C219.183 255.872 219.599 255.936 219.972 256.064H222.9V257.072L221.412 257.136C221.722 257.584 221.876 258.101 221.876 258.688C221.876 259.211 221.748 259.685 221.492 260.112C221.247 260.539 220.89 260.88 220.42 261.136C219.962 261.381 219.396 261.504 218.724 261.504ZM218.724 260.4C219.29 260.4 219.738 260.256 220.068 259.968C220.41 259.669 220.58 259.243 220.58 258.688C220.58 258.144 220.41 257.728 220.068 257.44C219.738 257.141 219.29 256.992 218.724 256.992C218.148 256.992 217.69 257.141 217.348 257.44C217.018 257.728 216.852 258.144 216.852 258.688C216.852 259.243 217.018 259.669 217.348 259.968C217.69 260.256 218.148 260.4 218.724 260.4ZM216.388 265.024C216.388 265.557 216.612 265.952 217.06 266.208C217.508 266.475 218.068 266.608 218.74 266.608C219.402 266.608 219.93 266.464 220.324 266.176C220.73 265.888 220.932 265.504 220.932 265.024C220.932 264.683 220.794 264.384 220.516 264.128C220.239 263.883 219.727 263.739 218.98 263.696C218.394 263.653 217.887 263.6 217.46 263.536C217.023 263.771 216.735 264.021 216.596 264.288C216.458 264.565 216.388 264.811 216.388 265.024ZM227.672 264.192C226.915 264.192 226.243 264.021 225.656 263.68C225.069 263.328 224.605 262.843 224.264 262.224C223.933 261.605 223.768 260.875 223.768 260.032C223.768 259.2 223.933 258.475 224.264 257.856C224.595 257.227 225.053 256.741 225.64 256.4C226.237 256.048 226.925 255.872 227.704 255.872C228.472 255.872 229.133 256.048 229.688 256.4C230.253 256.741 230.685 257.195 230.984 257.76C231.283 258.325 231.432 258.933 231.432 259.584C231.432 259.701 231.427 259.819 231.416 259.936C231.416 260.053 231.416 260.187 231.416 260.336H225.096C225.128 260.944 225.267 261.451 225.512 261.856C225.768 262.251 226.083 262.549 226.456 262.752C226.84 262.955 227.245 263.056 227.672 263.056C228.227 263.056 228.691 262.928 229.064 262.672C229.437 262.416 229.709 262.069 229.88 261.632H231.208C230.995 262.368 230.584 262.981 229.976 263.472C229.379 263.952 228.611 264.192 227.672 264.192ZM227.672 257.008C227.032 257.008 226.461 257.205 225.96 257.6C225.469 257.984 225.187 258.549 225.112 259.296H230.104C230.072 258.581 229.827 258.021 229.368 257.616C228.909 257.211 228.344 257.008 227.672 257.008ZM233.213 264V252.48H234.557V264H233.213ZM240.328 264.192C239.571 264.192 238.899 264.021 238.312 263.68C237.726 263.328 237.262 262.843 236.92 262.224C236.59 261.605 236.424 260.875 236.424 260.032C236.424 259.2 236.59 258.475 236.92 257.856C237.251 257.227 237.71 256.741 238.296 256.4C238.894 256.048 239.582 255.872 240.36 255.872C241.128 255.872 241.79 256.048 242.344 256.4C242.91 256.741 243.342 257.195 243.64 257.76C243.939 258.325 244.088 258.933 244.088 259.584C244.088 259.701 244.083 259.819 244.072 259.936C244.072 260.053 244.072 260.187 244.072 260.336H237.752C237.784 260.944 237.923 261.451 238.168 261.856C238.424 262.251 238.739 262.549 239.112 262.752C239.496 262.955 239.902 263.056 240.328 263.056C240.883 263.056 241.347 262.928 241.72 262.672C242.094 262.416 242.366 262.069 242.536 261.632H243.864C243.651 262.368 243.24 262.981 242.632 263.472C242.035 263.952 241.267 264.192 240.328 264.192ZM240.328 257.008C239.688 257.008 239.118 257.205 238.616 257.6C238.126 257.984 237.843 258.549 237.768 259.296H242.76C242.728 258.581 242.483 258.021 242.024 257.616C241.566 257.211 241 257.008 240.328 257.008ZM248.91 264.192C247.96 264.192 247.171 263.952 246.542 263.472C245.912 262.992 245.544 262.341 245.438 261.52H246.814C246.899 261.936 247.118 262.299 247.47 262.608C247.832 262.907 248.318 263.056 248.926 263.056C249.491 263.056 249.907 262.939 250.174 262.704C250.44 262.459 250.574 262.171 250.574 261.84C250.574 261.36 250.398 261.04 250.046 260.88C249.704 260.72 249.219 260.576 248.59 260.448C248.163 260.363 247.736 260.24 247.31 260.08C246.883 259.92 246.526 259.696 246.238 259.408C245.95 259.109 245.806 258.72 245.806 258.24C245.806 257.547 246.062 256.981 246.574 256.544C247.096 256.096 247.8 255.872 248.686 255.872C249.528 255.872 250.216 256.085 250.75 256.512C251.294 256.928 251.608 257.525 251.694 258.304H250.366C250.312 257.899 250.136 257.584 249.838 257.36C249.55 257.125 249.16 257.008 248.67 257.008C248.19 257.008 247.816 257.109 247.55 257.312C247.294 257.515 247.166 257.781 247.166 258.112C247.166 258.432 247.331 258.683 247.662 258.864C248.003 259.045 248.462 259.2 249.038 259.328C249.528 259.435 249.992 259.568 250.43 259.728C250.878 259.877 251.24 260.107 251.518 260.416C251.806 260.715 251.95 261.152 251.95 261.728C251.96 262.443 251.688 263.035 251.134 263.504C250.59 263.963 249.848 264.192 248.91 264.192Z" fill="#F9F9F7"/>
</svg>
